<svg width="220" height="220" viewBox="0 0 220 220" fill="none" xmlns="http://www.w3.org/2000/svg">
<path d="M110 0C170.751 0 220 49.2488 220 110C220 170.751 170.751 220 110 220C49.2487 220 0 170.751 0 110C0 49.2488 49.2487 0 110 0ZM71 44C70.4477 44 70 44.4477 70 45V61C70 61.5523 69.5523 62 69 62H53C52.4477 62 52 62.4477 52 63V65C52 65.5523 52.4477 66 53 66H69C69.5523 66 70 66.4477 70 67V152C70 152.552 69.5523 153 69 153H53C52.4477 153 52 153.448 52 154V156C52 156.552 52.4477 157 53 157H69C69.5523 157 70 157.448 70 158V174C70 174.552 70.4477 175 71 175H72.3262C72.8785 175 73.3262 174.552 73.3262 174V158C73.3262 157.448 73.7739 157 74.3262 157H144.674C145.226 157 145.674 157.448 145.674 158V174C145.674 174.552 146.122 175 146.674 175H148C148.552 175 149 174.552 149 174V158C149 157.448 149.448 157 150 157H167C167.552 157 168 156.552 168 156V154C168 153.448 167.552 153 167 153H150C149.448 153 149 152.552 149 152V67C149 66.4477 149.448 66 150 66H167C167.552 66 168 65.5523 168 65V63C168 62.4477 167.552 62 167 62H150C149.448 62 149 61.5523 149 61V45C149 44.4477 148.552 44 148 44H146.674C146.122 44 145.674 44.4477 145.674 45V61C145.674 61.5522 145.226 61.9999 144.674 62H74.3262C73.7739 61.9999 73.3262 61.5522 73.3262 61V45C73.3262 44.4477 72.8785 44 72.3262 44H71ZM136.674 72C139.435 72.0001 141.674 74.2387 141.674 77V143.569C141.674 146.331 139.435 148.569 136.674 148.569H83C80.2386 148.569 78 146.331 78 143.569V77C78 74.2386 80.2386 72 83 72H136.674Z" fill="#064E3B"/>
</svg>
